<svg width="53" height="54" viewBox="0 0 53 54" fill="none" xmlns="http://www.w3.org/2000/svg">
<rect width="53" height="54" fill="#E5E5E5"/>
<g id="Frame 1" clip-path="url(#clip0_0_1)">
<rect width="1920" height="3937" transform="translate(-413 -3823)" fill="#1C2B42"/>
<rect id="Rectangle 16" x="-413" y="-129" width="1920" height="243" fill="black"/>
<g id="&#209;&#129;&#208;&#178;&#209;&#143;&#208;&#183;&#208;&#177;">
<g id="akar-icons:facebook-fill" clip-path="url(#clip1_0_1)">
<path id="Vector" fill-rule="evenodd" clip-rule="evenodd" d="M0 26.1452C0 39.0715 9.56871 49.8203 22.0833 52V33.2215H15.4583V26H22.0833V20.2215C22.0833 13.7215 26.352 10.1118 32.3896 10.1118C34.302 10.1118 36.3646 10.4 38.277 10.6882V17.3333H34.8917C31.652 17.3333 30.9167 18.9215 30.9167 20.9452V26H37.9833L36.8063 33.2215H30.9167V52C43.4313 49.8203 53 39.0737 53 26.1452C53 11.765 41.075 0 26.5 0C11.925 0 0 11.765 0 26.1452Z" fill="#266198"/>
</g>
</g>
</g>
<defs>
<clipPath id="clip0_0_1">
<rect width="1920" height="3937" fill="white" transform="translate(-413 -3823)"/>
</clipPath>
<clipPath id="clip1_0_1">
<rect width="53" height="54" fill="white"/>
</clipPath>
</defs>
</svg>
